<?xml version="1.0" encoding="UTF-8"?>
<svg width="46px" height="48px" viewBox="0 0 46 48" version="1.1" xmlns="http://www.w3.org/2000/svg" xmlns:xlink="http://www.w3.org/1999/xlink">
    <title>076A6F97-A892-4097-B88E-E67636238A0D</title>
    <g id="UI" stroke="none" stroke-width="1" fill="none" fill-rule="evenodd">
        <g id="D_Chambres_OPTION-2" transform="translate(-223.000000, -3051.000000)" fill="#E4C1BE" fill-rule="nonzero">
            <g id="DELUXE" transform="translate(-288.000000, 2550.000000)">
                <g id="Group-3" transform="translate(460.000000, 40.000000)">
                    <g id="ELEMENT/CHAMBRE-Copy-2" transform="translate(51.600000, 461.000000)">
                        <g id="PICTO/TWIN" transform="translate(-0.000000, 0.000000)">
                            <path d="M42.56,26.25 L41.0666667,26.25 L11.20784,26.25 C11.2063467,26.25 11.2048533,26.25 11.20336,26.25 L3.73333333,26.25 L2.24,26.25 C1.00482667,26.25 -1.33226763e-15,27.2594062 -1.33226763e-15,28.5 C-1.33226763e-15,28.9141875 0.33432,29.25 0.746666667,29.25 C1.15901333,29.25 1.49333333,28.9141875 1.49333333,28.5 C1.49333333,28.0864688 1.82830667,27.75 2.24,27.75 L2.85189333,27.75 L1.11841333,38.1977812 C0.856146667,39.7787812 1.16377333,41.406375 1.98473333,42.7806562 L2.98666667,44.45775 L2.98666667,47.15625 C2.98666667,47.6215313 3.36354667,48 3.82666667,48 L40.9733333,48 C41.4364533,48 41.8133333,47.6215313 41.8133333,47.15625 L41.8133333,44.45775 L42.8152667,42.7806562 C43.6362267,41.406375 43.9438533,39.7787813 43.6815867,38.1977812 L41.9481067,27.75 L42.56,27.75 C42.9716933,27.75 43.3066667,28.0864688 43.3066667,28.5 C43.3066667,28.9141875 43.6409867,29.25 44.0533333,29.25 C44.46568,29.25 44.8,28.9141875 44.8,28.5 C44.8,27.2594062 43.7951733,26.25 42.56,26.25 Z M37.8014,42.0089062 L36.9106267,43.5 L34.70292,43.5 L35.23044,42.1753125 C35.6397067,41.147625 35.7917467,40.0229062 35.67004,38.92275 L34.4342133,27.75 L36.7008133,27.75 L38.4752667,38.4444375 C38.6792,39.6740625 38.4398933,40.9399687 37.8014,42.0089062 Z M30.85628,43.5 L31.3542133,41.7478125 C31.5752267,40.9704375 31.6550267,40.1675625 31.5913733,39.3613125 L30.67484,27.75 L32.93164,27.75 L34.1858533,39.0884062 C34.2804933,39.9440625 34.1623333,40.8188437 33.84388,41.6180625 L33.0945067,43.5 L30.85628,43.5 Z M26.9232133,43.5 L27.07684,40.757625 C27.0858,40.5972187 27.0890667,40.4342812 27.0865467,40.273125 L26.89176,27.75 L29.17684,27.75 L30.1027067,39.4799062 C30.1521733,40.1069062 30.0902,40.731375 29.91828,41.3359687 L29.3033067,43.5 L26.9232133,43.5 Z M23.1466667,43.5 L23.1466667,27.75 L25.39824,27.75 L25.5934,40.2965625 C25.59536,40.4219062 25.59284,40.54875 25.58584,40.6735312 L25.4275467,43.5 L23.1466667,43.5 Z M19.3680667,43.5 L19.1933467,40.69275 C19.18476,40.553625 19.1815867,40.4128125 19.1840133,40.2739687 L19.4005467,27.75 L21.6533333,27.75 L21.6533333,43.5 L19.3680667,43.5 Z M7.88937333,43.5 L6.9986,42.0089062 C6.36010667,40.9400625 6.1208,39.6741562 6.32473333,38.4444375 L8.09918667,27.75 L10.3657867,27.75 L9.12986667,38.92275 C9.00816,40.0229062 9.1602,41.147625 9.56946667,42.1753125 L10.0969867,43.5 L7.88937333,43.5 Z M11.7054933,43.5 L10.9560267,41.6181562 C10.6376667,40.8189375 10.5194133,39.9441562 10.6140533,39.0885 L11.86836,27.75 L14.1246933,27.75 L13.2021867,39.3534375 C13.1376933,40.165125 13.21852,40.9734375 13.44252,41.7559687 L13.94176,43.5 L11.7054933,43.5 Z M15.4955733,43.5 L14.8777067,41.3414063 C14.7034533,40.732875 14.6405467,40.1041875 14.69076,39.4727813 L15.6227867,27.75 L17.9069333,27.75 L17.69096,40.2479063 C17.6877867,40.4262188 17.6918933,40.6073438 17.703,40.7862188 L17.8719333,43.5 L15.4955733,43.5 L15.4955733,43.5 Z M2.5914,38.4444375 L4.36585333,27.75 L6.58532,27.75 L4.85174667,38.1977812 C4.58948,39.7787812 4.89710667,41.406375 5.71806667,42.7806562 L6.14777333,43.5 L4.15604,43.5 L3.26526667,42.0089062 C2.62677333,40.9399687 2.38746667,39.6740625 2.5914,38.4444375 Z M40.32,46.5 L4.48,46.5 L4.48,45 L7.46592,45 C7.46638667,45 7.46685333,45.0000937 7.46732,45.0000937 C7.46778667,45.0000937 7.46825333,45 7.46872,45 L11.19776,45 C11.1986,45 11.1993467,45.0001875 11.2001867,45.0001875 C11.2014933,45.0001875 11.2028,45 11.2041067,45 L14.93072,45 C14.9314667,45 14.9322133,45.0001875 14.93296,45.0001875 C14.9338,45.0001875 14.9347333,45 14.9355733,45 L29.8644267,45 C29.8652667,45 29.8662,45.0001875 29.86704,45.0001875 C29.8677867,45.0001875 29.8685333,45 29.86928,45 L33.5958933,45 C33.5972,45 33.5985067,45.0001875 33.5998133,45.0001875 C33.6006533,45.0001875 33.6014,45 33.60224,45 L37.33128,45 C37.3317467,45 37.3322133,45.0000937 37.33268,45.0000937 C37.3331467,45.0000937 37.3336133,45 37.33408,45 L40.32,45 L40.32,46.5 Z M41.5347333,42.0089062 L40.64396,43.5 L38.6522267,43.5 L39.0819333,42.7806562 C39.9028933,41.406375 40.21052,39.7787812 39.9482533,38.1977812 L38.2147733,27.75 L40.4341467,27.75 L42.2086,38.4444375 C42.4125333,39.6740625 42.1732267,40.9399687 41.5347333,42.0089062 Z" id="Shape"></path>
                            <path d="M8.21333333,24.75 C8.62568,24.75 8.96,24.4141875 8.96,24 L8.96,1.5 L35.84,1.5 L35.84,24 C35.84,24.4141875 36.17432,24.75 36.5866667,24.75 C36.9990133,24.75 37.3333333,24.4141875 37.3333333,24 L37.3333333,1.5 C37.3333333,0.6729375 36.6633867,0 35.84,0 L8.96,0 C8.13661333,0 7.46666667,0.6729375 7.46666667,1.5 L7.46666667,24 C7.46666667,24.4141875 7.80098667,24.75 8.21333333,24.75 Z" id="Path"></path>
                            <path d="M33.6,24.75 C34.0123467,24.75 34.3466667,24.4141875 34.3466667,24 L34.3466667,3.75 C34.3466667,3.3358125 34.0123467,3 33.6,3 L11.2,3 C10.7876533,3 10.4533333,3.3358125 10.4533333,3.75 L10.4533333,24 C10.4533333,24.4141875 10.7876533,24.75 11.2,24.75 C11.6123467,24.75 11.9466667,24.4141875 11.9466667,24 L11.9466667,12.75 L19.41324,12.75 C19.8255867,12.75 20.1599067,12.4141875 20.1599067,12 C20.1599067,11.5858125 19.8255867,11.25 19.41324,11.25 L11.9466667,11.25 L11.9466667,4.5 L21.6533333,4.5 L21.6533333,24 C21.6533333,24.4141875 21.9876533,24.75 22.4,24.75 C22.8123467,24.75 23.1466667,24.4141875 23.1466667,24 L23.1466667,12.75 L32.8533333,12.75 L32.8533333,24 C32.8533333,24.4141875 33.1876533,24.75 33.6,24.75 Z M23.1466667,11.25 L23.1466667,4.5 L32.8533333,4.5 L32.8533333,11.25 L23.1466667,11.25 Z" id="Shape"></path>
                        </g>
                    </g>
                </g>
            </g>
        </g>
    </g>
</svg>