<?xml version="1.0" encoding="UTF-8"?>
<svg width="48px" height="36px" viewBox="0 0 48 36" version="1.1" xmlns="http://www.w3.org/2000/svg" xmlns:xlink="http://www.w3.org/1999/xlink">
    <title>5280AC90-CE1F-4EEF-AB82-00CED6D2B28F</title>
    <g id="UI" stroke="none" stroke-width="1" fill="none" fill-rule="evenodd">
        <g id="D_Chambres_OPTION-2" transform="translate(-412.000000, -2984.000000)" fill="#E4C1BE" fill-rule="nonzero">
            <g id="DELUXE" transform="translate(-288.000000, 2550.000000)">
                <g id="Group-3" transform="translate(460.000000, 40.000000)">
                    <g id="ELEMENT/CHAMBRE-Copy" transform="translate(240.000000, 389.000000)">
                        <g id="PICTO/TWIN" transform="translate(0.000000, 5.400000)">
                            <path d="M44.8988708,23.7740519 L47.9269454,12.4801686 C48.0980363,11.8419617 47.9653823,11.1754608 47.5629202,10.6512729 C47.1605519,10.1271787 46.5506246,9.8265319 45.8895106,9.8265319 L42.8562798,9.8265319 L42.8562798,9.12386718 C42.8562798,7.96156604 41.9099831,7.01587302 40.74694,7.01587302 L39.4274307,7.01587302 C39.1504978,5.64942436 38.0821406,4.56657118 36.7082572,4.27988397 C36.1390167,2.14462642 34.2179236,0.645046214 31.9553051,0.645046214 C30.9431969,0.645046214 29.964182,0.955155577 29.1428519,1.52749941 C28.3213343,0.955155577 27.3423194,0.645046214 26.3303987,0.645046214 C23.8396902,0.645046214 21.7750683,2.50373493 21.4524799,4.90600508 C19.9593485,5.11090211 18.6275582,6.00094409 17.8650084,7.2953462 C17.4333906,7.11115435 16.9675546,7.01587302 16.4868126,7.01587302 C14.7890283,7.01587302 13.3686457,8.22483109 13.0420262,9.8265319 L6.39619931,9.8265319 L6.39619931,4.91865305 C6.39619931,4.53115687 6.71156906,4.21598832 7.09931261,4.21598832 C7.48705615,4.21598832 7.8024259,4.53115687 7.8024259,4.91865305 L7.8024259,5.99269949 C7.8024259,6.24987478 7.94304856,6.48653226 8.1689823,6.60963912 C8.2378874,6.64711457 8.87218934,6.9764301 9.91176579,6.9764301 C10.9511547,6.9764301 11.5855504,6.64720826 11.6545493,6.60963912 C11.880483,6.48662595 12.0211057,6.24987478 12.0211057,5.99269949 L12.0211057,4.91865305 C12.0211057,2.2065546 9.81314243,1.77635684e-15 7.09931261,1.77635684e-15 C4.38548279,1.77635684e-15 2.17751954,2.2065546 2.17751954,4.91865305 L2.17751954,9.8265319 L2.11048941,9.8265319 C1.44937542,9.8265319 0.83944807,10.1271787 0.437079768,10.6512729 C0.0346177181,11.1754608 -0.0980363236,11.8419617 0.0730545782,12.4801686 L3.10112917,23.7740519 C3.46449812,25.1291642 4.17389256,26.3348432 5.16762602,27.3018972 C4.81888182,27.6974506 4.55694868,28.1761995 4.41201359,28.7166892 L3.05387995,33.7820586 C2.9972559,33.9931391 3.0421614,34.2183666 3.17519043,34.3916905 C3.30831322,34.5651082 3.51437229,34.6666667 3.73299365,34.6666667 L7.64520977,34.6666667 C7.96348572,34.6666667 8.24201233,34.4530566 8.32432346,34.1458516 L9.30980706,30.4705403 C9.46261701,29.9008198 9.98151463,29.5029242 10.5717548,29.5029242 L25.9478113,29.5029242 C26.3362111,29.5029242 26.6509246,29.1884114 26.6509246,28.8002594 C26.6509246,28.4121075 26.3362111,28.0975947 25.9478113,28.0975947 L10.9549984,28.0975947 L10.7167836,27.7285552 C10.7167836,27.7285552 10.7167836,27.7285552 10.7166899,27.7284615 C9.95732753,26.5523882 8.62619344,25.9571843 7.24265397,26.1734177 C6.91453443,26.2248527 6.6040396,26.3202277 6.31510691,26.4517666 C5.41530939,25.6361134 4.77641378,24.5927031 4.45935656,23.4102589 L1.94774212,14.0426139 L8.58850657,14.0426139 C8.97690635,14.0426139 9.29161986,13.7281012 9.29161986,13.3399492 C9.29161986,12.9517972 8.97690635,12.6372845 8.58850657,12.6372845 L1.57096714,12.6372845 L1.43128197,12.1163757 C1.37428292,11.9037025 1.41843843,11.6814731 1.5526862,11.5068375 C1.68684021,11.3321082 1.89008683,11.2318613 2.11039566,11.2318613 L21.9626589,11.2318613 C22.3510587,11.2318613 22.6657722,10.9173486 22.6657722,10.5291966 C22.6657722,10.1410446 22.3510587,9.8265319 21.9626589,9.8265319 L14.4983144,9.8265319 C14.7885596,9.00872385 15.5701403,8.42120246 16.4867188,8.42120246 C16.9458987,8.42120246 17.3822977,8.56595139 17.7485728,8.83980325 C17.9253824,8.97199791 18.1534723,9.01350197 18.3654376,8.95213592 C18.577309,8.89076987 18.7480249,8.73365404 18.8266799,8.52772643 C19.3432338,7.17514369 20.6633993,6.26636398 22.1116252,6.26636398 C22.500025,6.26636398 22.8147385,5.95185125 22.8147385,5.56369926 C22.8147385,3.62640578 24.3917747,2.05037566 26.330305,2.05037566 C27.1961655,2.05037566 28.0284642,2.36835486 28.6738284,2.94557051 C28.940824,3.1845702 29.344786,3.18438283 29.6117816,2.94557051 C30.2568646,2.36835486 31.0891632,2.05037566 31.9552113,2.05037566 C33.6723077,2.05037566 35.1656266,3.32669585 35.4286847,5.01918095 C35.4798714,5.34859017 35.7556793,5.59667766 36.0888612,5.61316686 C36.9660654,5.65635731 37.6928033,6.2307623 37.9700174,7.01587302 L33.7805872,7.01587302 C32.617544,7.01587302 31.6712473,7.96156604 31.6712473,9.12386718 L31.6712473,9.8265319 L24.7751121,9.8265319 C24.3867123,9.8265319 24.0719988,10.1410446 24.0719988,10.5291966 C24.0719988,10.9173486 24.3867123,11.2318613 24.7751121,11.2318613 L31.6712473,11.2318613 L31.6712473,12.6371908 L11.4009597,12.6371908 C11.01256,12.6371908 10.6978465,12.9517035 10.6978465,13.3398555 C10.6978465,13.7280075 11.01256,14.0425202 11.4009597,14.0425202 L31.6712473,14.0425202 L31.6712473,20.0514279 C31.6712473,20.8263265 32.3020805,21.4567573 33.0774739,21.4567573 L41.4500532,21.4567573 C42.2254466,21.4567573 42.8562798,20.8263265 42.8562798,20.0514279 L42.8562798,11.2318613 L45.8895106,11.2318613 C46.1099132,11.2318613 46.3131598,11.3320145 46.4472201,11.5068375 C46.5814678,11.6814731 46.6256233,11.9037025 46.5686243,12.1163757 L46.4289391,12.6372845 L45.0592744,12.6372845 C44.6708746,12.6372845 44.3561611,12.9517972 44.3561611,13.3399492 C44.3561611,13.7281012 44.6708746,14.0426139 45.0592744,14.0426139 L46.0521641,14.0426139 L43.5405497,23.4102589 C43.2239612,24.5912978 42.5845969,25.6356449 41.6847056,26.4516729 C41.3958666,26.320134 41.0853718,26.224759 40.7572523,26.173324 C39.3730566,25.9567159 38.0423912,26.5523882 37.2832164,27.7283678 C37.2831226,27.7284615 37.2831226,27.7284615 37.2831226,27.7284615 L37.0449078,28.097501 L28.7601708,28.097501 C28.371771,28.097501 28.0570575,28.4120138 28.0570575,28.8001658 C28.0570575,29.1883177 28.371771,29.5028305 28.7601708,29.5028305 L37.4280577,29.5028305 C38.0182979,29.5028305 38.5371955,29.9007261 38.6900054,30.4705403 L39.675489,34.1458516 C39.7578002,34.4529629 40.0364205,34.6666667 40.3546027,34.6666667 L44.2668189,34.6666667 C44.4854402,34.6666667 44.6914993,34.5651082 44.8246221,34.3916905 C44.9576511,34.2183666 45.0024629,33.9931391 44.9459325,33.7820586 L43.5877989,28.7166892 C43.4428638,28.1761995 43.1810244,27.6975443 42.8322802,27.3019909 C43.8262012,26.3344684 44.5358769,25.1275715 44.8988708,23.7740519 L44.8988708,23.7740519 Z M7.46061909,27.5616958 C8.24135609,27.4390573 8.96725026,27.7316469 9.43514872,28.3476497 C8.72116061,28.6779021 8.16466987,29.3117994 7.95167342,30.1067474 L7.105875,33.2612435 L4.64938464,33.2612435 L5.77033473,29.0803884 C5.99008107,28.260894 6.62194555,27.6932346 7.46061909,27.5616958 L7.46061909,27.5616958 Z M3.58374613,4.91874673 C3.58374613,2.98145325 5.16078238,1.40542313 7.09931261,1.40542313 C9.03784284,1.40542313 10.6148791,2.98145325 10.6148791,4.91874673 L10.6148791,5.49408861 C10.4368508,5.53540529 10.1994797,5.57119435 9.91176579,5.57119435 C9.62405183,5.57119435 9.38668078,5.53540529 9.20865249,5.49408861 L9.20865249,4.91874673 C9.20865249,3.7564456 8.26235575,2.81075257 7.09931261,2.81075257 C5.93626947,2.81075257 4.98997272,3.7564456 4.98997272,4.91874673 L4.98997272,9.82662559 L3.58374613,9.82662559 L3.58374613,4.91874673 Z M33.0774739,15.1327748 L41.4500532,15.1327748 L41.4500532,16.5381042 L33.0774739,16.5381042 L33.0774739,15.1327748 Z M33.7805872,8.42120246 L40.74694,8.42120246 C41.1346835,8.42120246 41.4500532,8.73637101 41.4500532,9.12386718 L41.4500532,13.7274454 L33.0774739,13.7274454 L33.0774739,9.12386718 C33.0774739,8.7364647 33.3928436,8.42120246 33.7805872,8.42120246 Z M33.0774739,20.0514279 L33.0774739,17.9434337 L41.4500532,17.9434337 L41.4500532,20.0514279 L33.0774739,20.0514279 Z M40.8942188,33.2612435 L40.0484203,30.1068411 C39.8354239,29.3117994 39.2789331,28.6779021 38.564945,28.3476497 C39.0328435,27.7316469 39.7590189,27.439151 40.5394747,27.5616958 C41.3781482,27.6931409 42.0101064,28.260894 42.229759,29.0803884 L43.3507091,33.2612435 L40.8942188,33.2612435 Z" id="Shape"></path>
                        </g>
                    </g>
                </g>
            </g>
        </g>
    </g>
</svg>