<?xml version="1.0" encoding="UTF-8"?>
<svg width="48px" height="46px" viewBox="0 0 48 46" version="1.1" xmlns="http://www.w3.org/2000/svg" xmlns:xlink="http://www.w3.org/1999/xlink">
    <title>83E318D0-9ADD-49CF-8113-32BC0C452221</title>
    <g id="UI" stroke="none" stroke-width="1" fill="none" fill-rule="evenodd">
        <g id="D_Chambres_OPTION-2" transform="translate(-222.000000, -2978.000000)" fill="#E4C1BE" fill-rule="nonzero">
            <g id="DELUXE" transform="translate(-288.000000, 2550.000000)">
                <g id="Group-3" transform="translate(460.000000, 40.000000)">
                    <g id="PICTO/TWIN" transform="translate(50.000000, 388.000000)">
                        <path d="M40.6750283,20.3979892 C40.5715283,20.2679595 40.4615595,20.1451851 40.347372,20.027593 L40.347372,9.83590074 C40.347372,8.7434626 39.5352158,7.83721194 38.4583097,7.72781737 C36.3389973,7.51251453 34.6915287,6.70915696 32.9474038,5.8587814 C30.646779,4.73703945 28.0392167,3.46548064 24,3.46548064 C23.611592,3.46548064 23.2968733,3.78188631 23.2968733,4.17216394 C23.2968733,4.56244156 23.611592,4.87884723 24,4.87884723 C27.7161542,4.87884723 30.0634665,6.02339149 32.3336226,7.1303402 C34.11131,7.99711082 35.9494661,8.8934679 38.3169347,9.1340229 C38.6728097,9.17020508 38.9411221,9.47191174 38.9411221,9.83590074 L38.9411221,19.0165647 C38.4994659,18.8061616 38.0261222,18.6637884 37.5348722,18.5934028 L37.5348722,15.1478977 C37.5348722,12.9034716 35.4085286,11.9458686 30.4250603,11.9458686 C27.8417792,11.9458686 25.2182794,12.1515606 24,13.3713901 C22.7817171,12.1515606 20.1582173,11.9458686 17.5749362,11.9458686 C12.5914678,11.9458686 10.4651242,12.9034716 10.4651242,15.1478977 L10.4651242,18.5934028 C9.97387426,18.6637884 9.50053055,18.8061616 9.05887433,19.0165647 L9.05887433,9.83590074 C9.05887433,9.47191174 9.32718681,9.17020508 9.68306179,9.1340229 C12.0506241,8.8934679 13.8886865,7.99720504 15.6663738,7.1303402 C17.3716862,6.29880953 19.1351236,5.4389173 21.4773734,5.06955749 C21.8610921,5.0090654 22.1233109,4.64752623 22.0630296,4.2618656 C22.0028421,3.87639342 21.6437797,3.61284767 21.2594984,3.67324553 C18.7099674,4.07520699 16.8507175,4.98183454 15.0525926,5.85859295 C13.3084678,6.70906273 11.6609991,7.51232608 9.5416868,7.72762892 C8.46478063,7.83702349 7.65262444,8.74327415 7.65262444,9.83571229 L7.65262444,20.0274045 C7.53843694,20.1449966 7.4284682,20.2677711 7.32496821,20.3978008 L2.0029686,27.0838728 C0.711374948,28.7067945 -2.36847579e-16,30.7449633 -2.36847579e-16,32.8230833 L-2.36847579e-16,43.7465226 C-2.36847579e-16,44.9155652 0.94631243,45.8666667 2.10937484,45.8666667 L26.6629668,45.8666667 C27.051373,45.8666667 27.3660917,45.5501668 27.3660917,45.1598891 C27.3660917,44.7696115 27.051373,44.4532059 26.6629668,44.4532059 L2.10937484,44.4532059 C1.72162487,44.4532059 1.4062499,44.1362348 1.4062499,43.7465226 L1.4062499,32.8230833 C1.4062499,31.0646669 2.00812485,29.340077 3.10106227,27.9669442 C3.10106227,27.9669442 5.42296835,25.049944 5.4230621,25.0498498 C6.0938433,24.2071064 7.09443698,23.723735 8.1682494,23.723735 L33.3546538,23.723735 C33.74306,23.723735 34.0577787,23.4073294 34.0577787,23.0170517 C34.0577787,22.6267741 33.74306,22.3103685 33.3546538,22.3103685 L8.1682494,22.3103685 C7.96818691,22.3103685 7.77018693,22.323183 7.57462444,22.3467391 L8.42306188,21.280778 C9.06337433,20.4762897 10.0044368,20.0004563 11.0225617,19.9588091 C11.2601242,20.0615138 11.7265304,20.2368654 12.4664053,20.4078828 C13.8705927,20.7323918 15.5893114,20.8970019 17.5749362,20.8970019 C21.2994359,20.8970019 23.2727795,20.3003727 24,20.0170398 C24.7272169,20.3004669 26.7005605,20.8970019 30.4250603,20.8970019 C34.4249975,20.8970019 36.3930911,20.2085981 36.9757473,19.9588091 C37.9945285,20.0000794 38.9362471,20.4759129 39.5769346,21.2808722 L40.425372,22.3468333 C40.2298095,22.3232772 40.0318095,22.3104627 39.8317471,22.3104627 L36.1671536,22.3104627 C35.7787474,22.3104627 35.4640286,22.6268683 35.4640286,23.017146 C35.4640286,23.4074236 35.7787474,23.7238293 36.1671536,23.7238293 L39.8317471,23.7238293 C40.9055595,23.7238293 41.9063407,24.2073891 42.5771219,25.0501325 L44.8989342,27.9670384 C45.8448716,29.1554913 46.4220903,30.6073014 46.5604653,32.1164943 L3.51562474,32.1164943 C3.12721852,32.1164943 2.81249979,32.4328999 2.81249979,32.8231776 C2.81249979,33.2134552 3.12721852,33.5298609 3.51562474,33.5298609 L46.5937466,33.5298609 L46.5937466,43.7466168 C46.5937466,44.1363291 46.2783716,44.4533001 45.8906216,44.4533001 L29.4754666,44.4533001 C29.0870604,44.4533001 28.7723416,44.7697057 28.7723416,45.1599834 C28.7723416,45.550261 29.0870604,45.8666667 29.4754666,45.8666667 L45.8906216,45.8666667 C47.053684,45.8666667 48,44.9156594 48,43.7466168 L48,32.8231776 C48,30.7450576 47.2886215,28.7068887 45.9970279,27.0841554 L40.6750283,20.3979892 Z M11.8713741,18.7724292 L11.8713741,15.1478035 C11.8713741,14.6125145 11.8713741,13.359141 17.5749362,13.359141 C19.9226235,13.359141 21.5737484,13.5785897 22.4826546,14.0112683 C23.1584045,14.3330448 23.296967,14.6983529 23.296967,15.1478035 L23.296967,18.7707332 C22.5796858,19.0177897 20.7989047,19.4837295 17.57503,19.4837295 C14.3506864,19.4836353 12.5800303,19.0176954 11.8713741,18.7724292 Z M24.7031232,18.7707332 L24.7031232,15.1478035 C24.7031232,14.6982587 24.8416857,14.3330448 25.5174356,14.0112683 C26.4261543,13.5785897 28.0774667,13.359141 30.425154,13.359141 C36.1287161,13.359141 36.1287161,14.6126087 36.1287161,15.1478035 L36.1287161,18.7720523 C35.4163099,19.0187319 33.645935,19.4837295 30.425154,19.4837295 C27.2011855,19.4836353 25.4204044,19.0176954 24.7031232,18.7707332 L24.7031232,18.7707332 Z" id="Shape"></path>
                    </g>
                </g>
            </g>
        </g>
    </g>
</svg>