<?xml version="1.0" encoding="UTF-8" standalone="no"?>
<svg
   id="Camada_1"
   viewBox="0 0 42.67 45.87"
   version="1.1"
   sodipodi:docname="dressing-icon.svg"
   inkscape:version="1.2.2 (732a01da63, 2022-12-09)"
   xmlns:inkscape="http://www.inkscape.org/namespaces/inkscape"
   xmlns:sodipodi="http://sodipodi.sourceforge.net/DTD/sodipodi-0.dtd"
   xmlns="http://www.w3.org/2000/svg"
   xmlns:svg="http://www.w3.org/2000/svg">
  <sodipodi:namedview
     id="namedview30"
     pagecolor="#505050"
     bordercolor="#ffffff"
     borderopacity="1"
     inkscape:showpageshadow="0"
     inkscape:pageopacity="0"
     inkscape:pagecheckerboard="1"
     inkscape:deskcolor="#505050"
     showgrid="false"
     inkscape:zoom="6.4513668"
     inkscape:cx="-40.146531"
     inkscape:cy="27.126035"
     inkscape:window-width="1920"
     inkscape:window-height="1017"
     inkscape:window-x="-8"
     inkscape:window-y="-8"
     inkscape:window-maximized="1"
     inkscape:current-layer="D_Chambres_OPTION-2" />
  <defs
     id="defs19">
    <style
       id="style17">.cls-1{fill:#e4c1be;}</style>
  </defs>
  <g
     id="UI">
    <g
       id="D_Chambres_OPTION-2"
       transform="translate(-889.000000, -2257.000000)">
      <g
         id="CLASSIC"
         transform="translate(0.000000, 1755.000000)">
        <g
           id="Group-5"
           transform="translate(837.000000, 40.000000)">
          <g
             id="ELEMENT_CHAMBRE-Copy-2"
             transform="translate(52.666667, 462.000000)">
            <g
               id="PICTO_TWIN"
               transform="translate(0.000000, 0.066667)">
              <path
                 id="Shape"
                 class="cls-1"
                 d="M42.09,42.29c-.39-.42-.95-.66-1.52-.66h-11.67l-3.97-8.84c-.17-.37-.43-.67-.74-.88,1.36-1.99,3.07-4.11,4.73-6.13,3.18-3.86,5.49-7.23,6.87-10.02,.17-.35,.03-.77-.31-.95-.35-.17-.77-.03-.94,.32-1.34,2.7-3.59,5.98-6.7,9.75-1.81,2.2-3.68,4.53-5.12,6.7-.03,0-.07,0-.1,.02-3.12,.6-5.72,1.19-7.87,1.78,1.41-3.39,4.07-7.41,8.28-12.53,9-10.93,7.87-14.52,7.33-16.25-.04-.13-.08-.25-.1-.34-.09-.38-.46-.62-.84-.53-.38,.09-.61,.47-.52,.85,.03,.14,.08,.29,.13,.45,.1,.33,.24,.77,.27,1.39-1.85-.52-4.51-.76-8.23-.76s-6.38,.24-8.23,.76c.03-.62,.17-1.06,.27-1.39,.05-.15,.09-.3,.13-.45,.09-.38-.15-.76-.52-.85-.38-.09-.75,.15-.84,.53-.02,.09-.06,.21-.1,.34-.54,1.73-1.67,5.33,7.33,16.25,.37,.45,.72,.89,1.07,1.31-1.49,1.9-2.75,3.65-3.8,5.28-.59-.75-1.26-1.58-2.07-2.56-4.26-5.18-6.89-9.39-7.82-12.53-1.03-3.48,.32-4.84,.76-5.28l3.83-3.86c1.21-1.22,4.38-1.79,10-1.79s8.79,.57,10,1.79l3.83,3.86c.46,.47,1.87,1.89,.66,5.61-.12,.37,.08,.77,.45,.89,.37,.12,.76-.08,.88-.45,.59-1.82,.7-3.4,.33-4.73l1.7,.93c1.13,.62,1.83,1.81,1.83,3.1v21.97c0,1.95-1.57,3.53-3.5,3.53h-7.31c-.39,0-.7,.32-.7,.71s.31,.71,.7,.71h7.31c2.7,0,4.9-2.22,4.9-4.94V12.4c0-1.81-.98-3.47-2.56-4.34l-3.78-2.07-3.76-3.79c-1.53-1.54-4.81-2.2-10.99-2.2S11.62,.66,10.09,2.2l-3.76,3.79-3.78,2.07c-1.58,.87-2.56,2.53-2.56,4.34v3.04c0,.39,.31,.71,.7,.71s.7-.32,.7-.71v-3.04c0-1.29,.7-2.48,1.83-3.1l1.7-.93c-.34,1.25-.27,2.71,.22,4.38,.99,3.37,3.64,7.63,8.08,13.03,.95,1.15,1.7,2.09,2.36,2.92-1.13,1.88-1.96,3.58-2.53,5.16-1.77,.55-3.15,1.11-4.21,1.69-1,.55-2.02,1.25-2.59,2.35h-1.37c-1.93,0-3.5-1.58-3.5-3.53V18.26c0-.39-.31-.71-.7-.71s-.7,.32-.7,.71v16.11c0,2.72,2.2,4.94,4.9,4.94h.95c-.02,.19-.03,.39-.03,.59,0,.79,.13,1.46,.27,1.94-.7,.34-1.18,1.07-1.18,1.9,0,1.17,.94,2.12,2.1,2.12H40.53c1.14,0,2.08-.89,2.14-2.02,.03-.58-.18-1.14-.58-1.56h0ZM20.19,19.94c-5.14-6.25-6.81-9.89-7.23-12.1,1.71-.53,4.37-.78,8.12-.78s6.41,.26,8.12,.78c-.42,2.21-2.08,5.86-7.23,12.1-.3,.37-.6,.73-.89,1.09-.29-.36-.58-.72-.89-1.09Zm20.34,24.51H6.99c-.39,0-.7-.32-.7-.71s.31-.71,.7-.71h4.57c.39,0,.7-.32,.7-.71s-.31-.71-.7-.71H7.47c-.12-.37-.27-.98-.27-1.73,0-1.14,.39-2.06,2.31-3.11,2.34-1.28,6.71-2.53,13.37-3.82,.32-.06,.64,.1,.77,.4l3.71,8.26H14.36c-.39,0-.7,.32-.7,.71s.31,.71,.7,.71h26.21c.19,0,.37,.08,.51,.22,.13,.14,.2,.33,.19,.52-.02,.37-.35,.67-.74,.67h0Z" />
              <path
                 id="Shape-2"
                 class="cls-1"
                 d="M38.38,29.15c-.24-.75-1.26-.85-2.55-.98-.22-.02-.5-.05-.68-.08-.08-.16-.19-.42-.28-.63-.52-1.2-.94-2.15-1.72-2.15s-1.19,.95-1.72,2.15c-.09,.21-.2,.47-.28,.63-.18,.03-.46,.06-.68,.08-1.29,.13-2.31,.24-2.55,.98s.52,1.44,1.49,2.31c.17,.15,.38,.34,.5,.47-.03,.18-.09,.46-.14,.68-.28,1.28-.49,2.29,.14,2.75,.17,.12,.35,.18,.55,.18,.56,0,1.26-.41,2.08-.9,.19-.11,.44-.26,.6-.34,.16,.08,.4,.23,.6,.34,1.12,.66,2.01,1.18,2.64,.72,.63-.46,.41-1.47,.14-2.75-.05-.22-.11-.5-.14-.68,.13-.13,.34-.32,.5-.47,.97-.87,1.73-1.56,1.49-2.31h0Zm-2.43,1.26c-.6,.54-.85,.77-.94,1.07-.1,.3-.03,.63,.14,1.43,.05,.26,.15,.68,.2,1.02-.31-.16-.68-.38-.9-.51-.7-.41-.99-.58-1.3-.58s-.6,.17-1.3,.58c-.22,.13-.59,.35-.9,.51,.05-.35,.14-.77,.2-1.02,.17-.79,.24-1.13,.14-1.43-.1-.3-.34-.53-.94-1.07-.19-.17-.51-.46-.76-.71,.34-.06,.77-.1,1.03-.13,.8-.08,1.14-.12,1.39-.31,.25-.18,.39-.49,.72-1.24,.1-.24,.28-.63,.44-.95,.16,.31,.33,.71,.44,.95,.32,.74,.47,1.05,.72,1.24,.25,.18,.59,.22,1.39,.31,.26,.03,.68,.07,1.03,.13-.25,.25-.56,.54-.76,.71h0Z" />
            </g>
          </g>
        </g>
      </g>
    </g>
  </g>
</svg>
