<svg xmlns="http://www.w3.org/2000/svg" xmlns:xlink="http://www.w3.org/1999/xlink" width="1000" height="400" viewBox="0 0 1000 400"><rect width="100%" height="100%" fill="#40352C"/><path d="M224.46 120.13L224.46 248.10L200.56 248.10L200.56 120.13L224.46 120.13ZM271.45 248.10L249.59 248.10L249.59 157.30L262.95 157.30Q267.20 157.30 268.53 161.28L268.53 161.28L269.94 168.01Q272.33 165.35 274.94 163.14Q277.56 160.93 280.52 159.33Q283.48 157.74 286.89 156.81Q290.30 155.88 294.37 155.88L294.37 155.88Q302.95 155.88 308.49 160.53Q314.02 165.18 316.76 172.87L316.76 172.87Q318.88 168.36 322.07 165.13Q325.26 161.90 329.06 159.87Q332.87 157.83 337.16 156.86Q341.45 155.88 345.79 155.88L345.79 155.88Q353.31 155.88 359.15 158.18Q364.99 160.48 368.98 164.91Q372.96 169.33 375.04 175.71Q377.12 182.08 377.12 190.31L377.12 190.31L377.12 248.10L355.26 248.10L355.26 190.31Q355.26 181.64 351.45 177.26Q347.65 172.87 340.30 172.87L340.30 172.87Q336.94 172.87 334.06 174.03Q331.19 175.18 329.02 177.34Q326.85 179.51 325.61 182.79Q324.37 186.06 324.37 190.31L324.37 190.31L324.37 248.10L302.42 248.10L302.42 190.31Q302.42 181.19 298.75 177.03Q295.08 172.87 288.00 172.87L288.00 172.87Q283.22 172.87 279.10 175.22Q274.99 177.57 271.45 181.64L271.45 181.64L271.45 248.10ZM445.79 224.65L445.79 209.34Q436.32 209.78 429.86 210.97Q423.40 212.17 419.51 214.03Q415.62 215.89 413.93 218.36Q412.25 220.84 412.25 223.76L412.25 223.76Q412.25 229.51 415.66 231.99Q419.07 234.47 424.55 234.47L424.55 234.47Q431.28 234.47 436.19 232.04Q441.10 229.60 445.79 224.65L445.79 224.65ZM399.60 176.95L395.70 169.95Q411.37 155.62 433.40 155.62L433.40 155.62Q441.37 155.62 447.65 158.23Q453.94 160.84 458.27 165.49Q462.61 170.13 464.87 176.59Q467.12 183.05 467.12 190.75L467.12 190.75L467.12 248.10L457.21 248.10Q454.11 248.10 452.43 247.17Q450.75 246.24 449.78 243.41L449.78 243.41L447.83 236.86Q444.38 239.96 441.10 242.30Q437.83 244.65 434.29 246.24Q430.75 247.83 426.72 248.68Q422.70 249.52 417.83 249.52L417.83 249.52Q412.08 249.52 407.21 247.97Q402.34 246.42 398.80 243.32Q395.26 240.22 393.31 235.62Q391.37 231.02 391.37 224.91L391.37 224.91Q391.37 221.46 392.52 218.05Q393.67 214.65 396.28 211.55Q398.89 208.45 403.05 205.71Q407.21 202.96 413.27 200.93Q419.33 198.89 427.39 197.61Q435.44 196.33 445.79 196.06L445.79 196.06L445.79 190.75Q445.79 181.64 441.90 177.26Q438.01 172.87 430.66 172.87L430.66 172.87Q425.35 172.87 421.85 174.11Q418.36 175.35 415.70 176.90Q413.05 178.45 410.88 179.69Q408.71 180.93 406.06 180.93L406.06 180.93Q403.76 180.93 402.16 179.73Q400.57 178.54 399.60 176.95L399.60 176.95ZM520.84 200.49L520.84 200.49Q524.91 200.49 527.92 199.38Q530.93 198.27 532.92 196.33Q534.91 194.38 535.93 191.64Q536.95 188.89 536.95 185.62L536.95 185.62Q536.95 178.89 532.92 174.95Q528.90 171.02 520.84 171.02L520.84 171.02Q512.79 171.02 508.76 174.95Q504.73 178.89 504.73 185.62L504.73 185.62Q504.73 188.80 505.75 191.55Q506.77 194.29 508.76 196.28Q510.75 198.27 513.81 199.38Q516.86 200.49 520.84 200.49ZM545.53 252.17L545.53 252.17Q545.53 249.52 543.94 247.83Q542.35 246.15 539.60 245.22Q536.86 244.29 533.19 243.85Q529.51 243.41 525.40 243.19Q521.28 242.97 516.90 242.79Q512.52 242.61 508.36 242.08L508.36 242.08Q504.73 244.12 502.48 246.86Q500.22 249.60 500.22 253.23L500.22 253.23Q500.22 255.62 501.42 257.70Q502.61 259.78 505.22 261.29Q507.83 262.79 511.99 263.63Q516.15 264.47 522.17 264.47L522.17 264.47Q528.28 264.47 532.70 263.54Q537.13 262.61 540.00 260.98Q542.88 259.34 544.21 257.08Q545.53 254.83 545.53 252.17ZM541.20 160.40L567.30 160.40L567.30 168.54Q567.30 172.43 562.61 173.32L562.61 173.32L554.47 174.82Q556.33 179.51 556.33 185.09L556.33 185.09Q556.33 191.81 553.63 197.26Q550.93 202.70 546.15 206.50Q541.37 210.31 534.87 212.39Q528.36 214.47 520.84 214.47L520.84 214.47Q518.19 214.47 515.71 214.20Q513.23 213.94 510.84 213.50L510.84 213.50Q506.59 216.06 506.59 219.25L506.59 219.25Q506.59 221.99 509.12 223.28Q511.64 224.56 515.80 225.09Q519.96 225.62 525.27 225.75Q530.58 225.89 536.15 226.33Q541.73 226.77 547.04 227.88Q552.35 228.98 556.51 231.37Q560.67 233.76 563.19 237.88Q565.71 241.99 565.71 248.45L565.71 248.45Q565.71 254.47 562.75 260.14Q559.78 265.80 554.16 270.22Q548.54 274.65 540.36 277.35Q532.17 280.05 521.73 280.05L521.73 280.05Q511.46 280.05 503.85 278.06Q496.24 276.07 491.19 272.75Q486.15 269.43 483.67 265.09Q481.19 260.76 481.19 256.06L481.19 256.06Q481.19 249.69 485.04 245.40Q488.89 241.11 495.62 238.54L495.62 238.54Q491.99 236.68 489.87 233.59Q487.74 230.49 487.74 225.44L487.74 225.44Q487.74 223.41 488.50 221.24Q489.25 219.07 490.71 216.95Q492.17 214.82 494.38 212.92Q496.59 211.02 499.60 209.51L499.60 209.51Q492.70 205.80 488.76 199.60Q484.82 193.41 484.82 185.09L484.82 185.09Q484.82 178.36 487.52 172.92Q490.22 167.48 495.04 163.63Q499.87 159.78 506.46 157.74Q513.05 155.71 520.84 155.71L520.84 155.71Q526.68 155.71 531.82 156.90Q536.95 158.10 541.20 160.40L541.20 160.40ZM598.37 192.26L639.61 192.26Q639.61 188.01 638.41 184.25Q637.22 180.49 634.83 177.65Q632.44 174.82 628.77 173.18Q625.09 171.55 620.23 171.55L620.23 171.55Q610.76 171.55 605.32 176.95Q599.87 182.34 598.37 192.26L598.37 192.26ZM654.12 205.44L597.93 205.44Q598.46 212.43 600.40 217.52Q602.35 222.61 605.54 225.93Q608.72 229.25 613.10 230.89Q617.48 232.52 622.79 232.52L622.79 232.52Q628.10 232.52 631.95 231.28Q635.80 230.05 638.68 228.54Q641.56 227.04 643.72 225.80Q645.89 224.56 647.93 224.56L647.93 224.56Q650.67 224.56 652.00 226.59L652.00 226.59L658.28 234.56Q654.65 238.81 650.14 241.68Q645.63 244.56 640.72 246.29Q635.80 248.01 630.71 248.72Q625.63 249.43 620.85 249.43L620.85 249.43Q611.38 249.43 603.24 246.29Q595.09 243.14 589.08 236.99Q583.06 230.84 579.61 221.77Q576.15 212.70 576.15 200.75L576.15 200.75Q576.15 191.46 579.16 183.27Q582.17 175.09 587.79 169.03Q593.41 162.96 601.51 159.42Q609.61 155.88 619.78 155.88L619.78 155.88Q628.37 155.88 635.63 158.63Q642.88 161.37 648.10 166.64Q653.33 171.90 656.29 179.56Q659.26 187.21 659.26 197.04L659.26 197.04Q659.26 201.99 658.19 203.72Q657.13 205.44 654.12 205.44L654.12 205.44ZM776.43 231.73L799.44 231.73L799.44 248.10L728.64 248.10L728.64 231.73L754.57 231.73L754.57 157.12Q754.57 152.70 754.84 148.01L754.84 148.01L736.43 163.41Q734.83 164.64 733.29 164.95Q731.74 165.26 730.37 165.00Q728.99 164.73 727.93 164.07Q726.87 163.41 726.34 162.61L726.34 162.61L719.44 153.14L758.46 119.95L776.43 119.95L776.43 231.73Z" fill="#8C7B26"/></svg>