<svg xmlns="http://www.w3.org/2000/svg" xmlns:xlink="http://www.w3.org/1999/xlink" width="1000" height="400" viewBox="0 0 1000 400"><rect width="100%" height="100%" fill="#40352C"/><path d="M223.08 120.75L223.08 248.72L199.19 248.72L199.19 120.75L223.08 120.75ZM270.08 248.72L248.22 248.72L248.22 157.92L261.58 157.92Q265.83 157.92 267.16 161.90L267.16 161.90L268.57 168.63Q270.96 165.97 273.57 163.76Q276.18 161.55 279.15 159.95Q282.11 158.36 285.52 157.43Q288.93 156.50 293.00 156.50L293.00 156.50Q301.58 156.50 307.11 161.15Q312.65 165.79 315.39 173.49L315.39 173.49Q317.51 168.98 320.70 165.75Q323.89 162.52 327.69 160.48Q331.50 158.45 335.79 157.48Q340.08 156.50 344.42 156.50L344.42 156.50Q351.94 156.50 357.78 158.80Q363.62 161.10 367.60 165.53Q371.59 169.95 373.67 176.33Q375.75 182.70 375.75 190.93L375.75 190.93L375.75 248.72L353.89 248.72L353.89 190.93Q353.89 182.26 350.08 177.88Q346.28 173.49 338.93 173.49L338.93 173.49Q335.57 173.49 332.69 174.64Q329.81 175.80 327.65 177.96Q325.48 180.13 324.24 183.41Q323 186.68 323 190.93L323 190.93L323 248.72L301.05 248.72L301.05 190.93Q301.05 181.81 297.38 177.65Q293.71 173.49 286.63 173.49L286.63 173.49Q281.85 173.49 277.73 175.84Q273.62 178.18 270.08 182.26L270.08 182.26L270.08 248.72ZM444.42 225.27L444.42 209.96Q434.95 210.40 428.49 211.59Q422.03 212.79 418.14 214.65Q414.24 216.51 412.56 218.98Q410.88 221.46 410.88 224.38L410.88 224.38Q410.88 230.13 414.29 232.61Q417.69 235.09 423.18 235.09L423.18 235.09Q429.91 235.09 434.82 232.66Q439.73 230.22 444.42 225.27L444.42 225.27ZM398.23 177.57L394.33 170.57Q410.00 156.24 432.03 156.24L432.03 156.24Q440.00 156.24 446.28 158.85Q452.56 161.46 456.90 166.10Q461.24 170.75 463.49 177.21Q465.75 183.67 465.75 191.37L465.75 191.37L465.75 248.72L455.84 248.72Q452.74 248.72 451.06 247.79Q449.38 246.86 448.40 244.03L448.40 244.03L446.46 237.48Q443.01 240.58 439.73 242.92Q436.46 245.27 432.92 246.86Q429.38 248.45 425.35 249.29Q421.32 250.14 416.46 250.14L416.46 250.14Q410.70 250.14 405.84 248.59Q400.97 247.04 397.43 243.94Q393.89 240.84 391.94 236.24Q389.99 231.64 389.99 225.53L389.99 225.53Q389.99 222.08 391.15 218.67Q392.30 215.27 394.91 212.17Q397.52 209.07 401.68 206.33Q405.84 203.58 411.90 201.55Q417.96 199.51 426.01 198.23Q434.07 196.95 444.42 196.68L444.42 196.68L444.42 191.37Q444.42 182.26 440.53 177.88Q436.63 173.49 429.29 173.49L429.29 173.49Q423.98 173.49 420.48 174.73Q416.99 175.97 414.33 177.52Q411.68 179.07 409.51 180.31Q407.34 181.55 404.69 181.55L404.69 181.55Q402.38 181.55 400.79 180.35Q399.20 179.16 398.23 177.57L398.23 177.57ZM519.47 201.11L519.47 201.11Q523.54 201.11 526.55 200Q529.56 198.89 531.55 196.95Q533.54 195.00 534.56 192.26Q535.58 189.51 535.58 186.24L535.58 186.24Q535.58 179.51 531.55 175.57Q527.52 171.64 519.47 171.64L519.47 171.64Q511.42 171.64 507.39 175.57Q503.36 179.51 503.36 186.24L503.36 186.24Q503.36 189.42 504.38 192.17Q505.40 194.91 507.39 196.90Q509.38 198.89 512.43 200Q515.49 201.11 519.47 201.11ZM544.16 252.79L544.16 252.79Q544.16 250.14 542.57 248.45Q540.98 246.77 538.23 245.84Q535.49 244.91 531.82 244.47Q528.14 244.03 524.03 243.81Q519.91 243.59 515.53 243.41Q511.15 243.23 506.99 242.70L506.99 242.70Q503.36 244.74 501.11 247.48Q498.85 250.22 498.85 253.85L498.85 253.85Q498.85 256.24 500.04 258.32Q501.24 260.40 503.85 261.91Q506.46 263.41 510.62 264.25Q514.78 265.09 520.80 265.09L520.80 265.09Q526.90 265.09 531.33 264.16Q535.75 263.23 538.63 261.60Q541.51 259.96 542.83 257.70Q544.16 255.45 544.16 252.79ZM539.83 161.02L565.93 161.02L565.93 169.16Q565.93 173.05 561.24 173.94L561.24 173.94L553.10 175.44Q554.96 180.13 554.96 185.71L554.96 185.71Q554.96 192.43 552.26 197.88Q549.56 203.32 544.78 207.12Q540.00 210.93 533.50 213.01Q526.99 215.09 519.47 215.09L519.47 215.09Q516.82 215.09 514.34 214.82Q511.86 214.56 509.47 214.12L509.47 214.12Q505.22 216.68 505.22 219.87L505.22 219.87Q505.22 222.61 507.74 223.89Q510.27 225.18 514.43 225.71Q518.59 226.24 523.89 226.37Q529.21 226.51 534.78 226.95Q540.36 227.39 545.67 228.50Q550.98 229.60 555.14 231.99Q559.29 234.38 561.82 238.50Q564.34 242.61 564.34 249.07L564.34 249.07Q564.34 255.09 561.37 260.76Q558.41 266.42 552.79 270.84Q547.17 275.27 538.98 277.97Q530.80 280.67 520.36 280.67L520.36 280.67Q510.09 280.67 502.48 278.68Q494.87 276.69 489.82 273.37Q484.78 270.05 482.30 265.71Q479.82 261.37 479.82 256.68L479.82 256.68Q479.82 250.31 483.67 246.02Q487.52 241.73 494.25 239.16L494.25 239.16Q490.62 237.30 488.50 234.21Q486.37 231.11 486.37 226.06L486.37 226.06Q486.37 224.03 487.12 221.86Q487.88 219.69 489.34 217.57Q490.80 215.44 493.01 213.54Q495.22 211.64 498.23 210.13L498.23 210.13Q491.33 206.42 487.39 200.22Q483.45 194.03 483.45 185.71L483.45 185.71Q483.45 178.98 486.15 173.54Q488.85 168.10 493.67 164.25Q498.50 160.40 505.09 158.36Q511.68 156.33 519.47 156.33L519.47 156.33Q525.31 156.33 530.44 157.52Q535.58 158.71 539.83 161.02L539.83 161.02ZM597.00 192.88L638.24 192.88Q638.24 188.63 637.04 184.87Q635.85 181.11 633.46 178.27Q631.07 175.44 627.40 173.80Q623.72 172.17 618.86 172.17L618.86 172.17Q609.39 172.17 603.94 177.57Q598.50 182.96 597.00 192.88L597.00 192.88ZM652.75 206.06L596.55 206.06Q597.08 213.05 599.03 218.14Q600.98 223.23 604.16 226.55Q607.35 229.87 611.73 231.51Q616.11 233.14 621.42 233.14L621.42 233.14Q626.73 233.14 630.58 231.90Q634.43 230.67 637.31 229.16Q640.18 227.66 642.35 226.42Q644.52 225.18 646.56 225.18L646.56 225.18Q649.30 225.18 650.63 227.21L650.63 227.21L656.91 235.18Q653.28 239.43 648.77 242.30Q644.25 245.18 639.34 246.91Q634.43 248.63 629.34 249.34Q624.25 250.05 619.48 250.05L619.48 250.05Q610.01 250.05 601.86 246.91Q593.72 243.76 587.70 237.61Q581.69 231.46 578.23 222.39Q574.78 213.32 574.78 201.37L574.78 201.37Q574.78 192.08 577.79 183.89Q580.80 175.71 586.42 169.64Q592.04 163.58 600.14 160.04Q608.24 156.50 618.41 156.50L618.41 156.50Q627.00 156.50 634.25 159.25Q641.51 161.99 646.73 167.25Q651.95 172.52 654.92 180.18Q657.88 187.83 657.88 197.65L657.88 197.65Q657.88 202.61 656.82 204.34Q655.76 206.06 652.75 206.06L652.75 206.06ZM727.53 158.45L716.03 156.41Q717.36 147.21 721.16 140.26Q724.97 133.32 730.68 128.67Q736.38 124.02 743.77 121.68Q751.16 119.33 759.66 119.33L759.66 119.33Q768.51 119.33 775.63 121.85Q782.76 124.38 787.80 128.85Q792.85 133.32 795.55 139.33Q798.25 145.35 798.25 152.34L798.25 152.34Q798.25 158.45 796.87 163.10Q795.50 167.74 792.94 171.19Q790.37 174.64 786.56 177.03Q782.76 179.42 777.98 181.02L777.98 181.02Q789.48 184.65 795.15 192.08Q800.81 199.51 800.81 210.75L800.81 210.75Q800.81 220.31 797.27 227.66Q793.73 235.00 787.71 240.00Q781.70 245.00 773.77 247.57Q765.85 250.14 757.00 250.14L757.00 250.14Q747.36 250.14 740.19 247.92Q733.02 245.71 727.71 241.37Q722.40 237.04 718.68 230.75Q714.97 224.47 712.31 216.24L712.31 216.24L721.96 212.26Q725.76 210.66 729.08 211.42Q732.40 212.17 733.91 215.00L733.91 215.00Q735.50 218.10 737.40 221.11Q739.30 224.12 741.96 226.46Q744.61 228.81 748.20 230.27Q751.78 231.73 756.74 231.73L756.74 231.73Q762.31 231.73 766.47 229.91Q770.63 228.10 773.42 225.18Q776.21 222.26 777.58 218.67Q778.95 215.09 778.95 211.46L778.95 211.46Q778.95 206.86 777.98 203.10Q777.00 199.34 773.91 196.68Q770.81 194.03 765.01 192.52Q759.22 191.02 749.48 191.02L749.48 191.02L749.48 175.44Q757.53 175.35 762.85 173.94Q768.15 172.52 771.30 170.00Q774.44 167.48 775.68 163.94Q776.92 160.40 776.92 156.15L776.92 156.15Q776.92 147.12 771.87 142.43Q766.83 137.74 758.42 137.74L758.42 137.74Q754.53 137.74 751.25 138.85Q747.98 139.95 745.37 141.94Q742.76 143.94 740.99 146.59Q739.22 149.25 738.33 152.43L738.33 152.43Q736.83 156.50 734.39 157.83Q731.96 159.16 727.53 158.45L727.53 158.45Z" fill="#8C7B26"/></svg>