<svg xmlns="http://www.w3.org/2000/svg" xmlns:xlink="http://www.w3.org/1999/xlink" width="1000" height="400" viewBox="0 0 1000 400"><rect width="100%" height="100%" fill="#40352C"/><path d="M223.00 120.75L223.00 248.72L199.10 248.72L199.10 120.75L223.00 120.75ZM269.99 248.72L248.13 248.72L248.13 157.92L261.49 157.92Q265.74 157.92 267.07 161.90L267.07 161.90L268.48 168.63Q270.87 165.97 273.48 163.76Q276.10 161.55 279.06 159.95Q282.02 158.36 285.43 157.43Q288.84 156.50 292.91 156.50L292.91 156.50Q301.49 156.50 307.03 161.15Q312.56 165.79 315.30 173.49L315.30 173.49Q317.42 168.98 320.61 165.75Q323.80 162.52 327.60 160.48Q331.41 158.45 335.70 157.48Q339.99 156.50 344.33 156.50L344.33 156.50Q351.85 156.50 357.69 158.80Q363.53 161.10 367.52 165.53Q371.50 169.95 373.58 176.33Q375.66 182.70 375.66 190.93L375.66 190.93L375.66 248.72L353.80 248.72L353.80 190.93Q353.80 182.26 349.99 177.88Q346.19 173.49 338.84 173.49L338.84 173.49Q335.48 173.49 332.60 174.64Q329.73 175.80 327.56 177.96Q325.39 180.13 324.15 183.41Q322.91 186.68 322.91 190.93L322.91 190.93L322.91 248.72L300.96 248.72L300.96 190.93Q300.96 181.81 297.29 177.65Q293.62 173.49 286.54 173.49L286.54 173.49Q281.76 173.49 277.64 175.84Q273.53 178.18 269.99 182.26L269.99 182.26L269.99 248.72ZM444.33 225.27L444.33 209.96Q434.86 210.40 428.40 211.59Q421.94 212.79 418.05 214.65Q414.16 216.51 412.47 218.98Q410.79 221.46 410.79 224.38L410.79 224.38Q410.79 230.13 414.20 232.61Q417.61 235.09 423.09 235.09L423.09 235.09Q429.82 235.09 434.73 232.66Q439.64 230.22 444.33 225.27L444.33 225.27ZM398.14 177.57L394.24 170.57Q409.91 156.24 431.94 156.24L431.94 156.24Q439.91 156.24 446.19 158.85Q452.48 161.46 456.81 166.10Q461.15 170.75 463.41 177.21Q465.66 183.67 465.66 191.37L465.66 191.37L465.66 248.72L455.75 248.72Q452.65 248.72 450.97 247.79Q449.29 246.86 448.32 244.03L448.32 244.03L446.37 237.48Q442.92 240.58 439.64 242.92Q436.37 245.27 432.83 246.86Q429.29 248.45 425.26 249.29Q421.24 250.14 416.37 250.14L416.37 250.14Q410.62 250.14 405.75 248.59Q400.88 247.04 397.34 243.94Q393.80 240.84 391.85 236.24Q389.91 231.64 389.91 225.53L389.91 225.53Q389.91 222.08 391.06 218.67Q392.21 215.27 394.82 212.17Q397.43 209.07 401.59 206.33Q405.75 203.58 411.81 201.55Q417.87 199.51 425.93 198.23Q433.98 196.95 444.33 196.68L444.33 196.68L444.33 191.37Q444.33 182.26 440.44 177.88Q436.55 173.49 429.20 173.49L429.20 173.49Q423.89 173.49 420.39 174.73Q416.90 175.97 414.24 177.52Q411.59 179.07 409.42 180.31Q407.25 181.55 404.60 181.55L404.60 181.55Q402.30 181.55 400.70 180.35Q399.11 179.16 398.14 177.57L398.14 177.57ZM519.38 201.11L519.38 201.11Q523.45 201.11 526.46 200Q529.47 198.89 531.46 196.95Q533.45 195.00 534.47 192.26Q535.49 189.51 535.49 186.24L535.49 186.24Q535.49 179.51 531.46 175.57Q527.43 171.64 519.38 171.64L519.38 171.64Q511.33 171.64 507.30 175.57Q503.27 179.51 503.27 186.24L503.27 186.24Q503.27 189.42 504.29 192.17Q505.31 194.91 507.30 196.90Q509.29 198.89 512.35 200Q515.40 201.11 519.38 201.11ZM544.07 252.79L544.07 252.79Q544.07 250.14 542.48 248.45Q540.89 246.77 538.14 245.84Q535.40 244.91 531.73 244.47Q528.05 244.03 523.94 243.81Q519.82 243.59 515.44 243.41Q511.06 243.23 506.90 242.70L506.90 242.70Q503.27 244.74 501.02 247.48Q498.76 250.22 498.76 253.85L498.76 253.85Q498.76 256.24 499.96 258.32Q501.15 260.40 503.76 261.91Q506.37 263.41 510.53 264.25Q514.69 265.09 520.71 265.09L520.71 265.09Q526.82 265.09 531.24 264.16Q535.67 263.23 538.54 261.60Q541.42 259.96 542.75 257.70Q544.07 255.45 544.07 252.79ZM539.74 161.02L565.84 161.02L565.84 169.16Q565.84 173.05 561.15 173.94L561.15 173.94L553.01 175.44Q554.87 180.13 554.87 185.71L554.87 185.71Q554.87 192.43 552.17 197.88Q549.47 203.32 544.69 207.12Q539.91 210.93 533.41 213.01Q526.90 215.09 519.38 215.09L519.38 215.09Q516.73 215.09 514.25 214.82Q511.77 214.56 509.38 214.12L509.38 214.12Q505.13 216.68 505.13 219.87L505.13 219.87Q505.13 222.61 507.66 223.89Q510.18 225.18 514.34 225.71Q518.50 226.24 523.81 226.37Q529.12 226.51 534.69 226.95Q540.27 227.39 545.58 228.50Q550.89 229.60 555.05 231.99Q559.21 234.38 561.73 238.50Q564.25 242.61 564.25 249.07L564.25 249.07Q564.25 255.09 561.29 260.76Q558.32 266.42 552.70 270.84Q547.08 275.27 538.90 277.97Q530.71 280.67 520.27 280.67L520.27 280.67Q510.00 280.67 502.39 278.68Q494.78 276.69 489.73 273.37Q484.69 270.05 482.21 265.71Q479.73 261.37 479.73 256.68L479.73 256.68Q479.73 250.31 483.58 246.02Q487.43 241.73 494.16 239.16L494.16 239.16Q490.53 237.30 488.41 234.21Q486.28 231.11 486.28 226.06L486.28 226.06Q486.28 224.03 487.03 221.86Q487.79 219.69 489.25 217.57Q490.71 215.44 492.92 213.54Q495.13 211.64 498.14 210.13L498.14 210.13Q491.24 206.42 487.30 200.22Q483.36 194.03 483.36 185.71L483.36 185.71Q483.36 178.98 486.06 173.54Q488.76 168.10 493.58 164.25Q498.41 160.40 505.00 158.36Q511.59 156.33 519.38 156.33L519.38 156.33Q525.22 156.33 530.36 157.52Q535.49 158.71 539.74 161.02L539.74 161.02ZM596.91 192.88L638.15 192.88Q638.15 188.63 636.95 184.87Q635.76 181.11 633.37 178.27Q630.98 175.44 627.31 173.80Q623.63 172.17 618.77 172.17L618.77 172.17Q609.30 172.17 603.85 177.57Q598.41 182.96 596.91 192.88L596.91 192.88ZM652.66 206.06L596.46 206.06Q597.00 213.05 598.94 218.14Q600.89 223.23 604.08 226.55Q607.26 229.87 611.64 231.51Q616.02 233.14 621.33 233.14L621.33 233.14Q626.64 233.14 630.49 231.90Q634.34 230.67 637.22 229.16Q640.10 227.66 642.26 226.42Q644.43 225.18 646.47 225.18L646.47 225.18Q649.21 225.18 650.54 227.21L650.54 227.21L656.82 235.18Q653.19 239.43 648.68 242.30Q644.17 245.18 639.25 246.91Q634.34 248.63 629.25 249.34Q624.17 250.05 619.39 250.05L619.39 250.05Q609.92 250.05 601.77 246.91Q593.63 243.76 587.62 237.61Q581.60 231.46 578.15 222.39Q574.69 213.32 574.69 201.37L574.69 201.37Q574.69 192.08 577.70 183.89Q580.71 175.71 586.33 169.64Q591.95 163.58 600.05 160.04Q608.15 156.50 618.32 156.50L618.32 156.50Q626.91 156.50 634.17 159.25Q641.42 161.99 646.64 167.25Q651.87 172.52 654.83 180.18Q657.80 187.83 657.80 197.65L657.80 197.65Q657.80 202.61 656.73 204.34Q655.67 206.06 652.66 206.06L652.66 206.06ZM760.37 228.36L793.20 228.36Q796.74 228.36 798.82 230.36Q800.90 232.35 800.90 235.62L800.90 235.62L800.90 248.72L713.11 248.72L713.11 241.46Q713.11 239.25 714.04 236.82Q714.97 234.38 717.00 232.44L717.00 232.44L755.85 193.50Q760.72 188.54 764.57 184.03Q768.42 179.51 770.99 175.09Q773.55 170.66 774.93 166.10Q776.30 161.55 776.30 156.50L776.30 156.50Q776.30 151.90 774.97 148.40Q773.64 144.91 771.21 142.52Q768.77 140.13 765.37 138.94Q761.96 137.74 757.71 137.74L757.71 137.74Q753.82 137.74 750.50 138.85Q747.18 139.95 744.61 141.94Q742.05 143.94 740.28 146.59Q738.51 149.25 737.62 152.43L737.62 152.43Q736.12 156.50 733.73 157.83Q731.34 159.16 726.83 158.45L726.83 158.45L715.32 156.41Q716.65 147.21 720.45 140.26Q724.26 133.32 729.97 128.67Q735.68 124.02 743.07 121.68Q750.45 119.33 758.95 119.33L758.95 119.33Q767.80 119.33 775.15 121.94Q782.49 124.55 787.71 129.33Q792.93 134.11 795.86 140.84Q798.78 147.56 798.78 155.79L798.78 155.79Q798.78 162.87 796.70 168.89Q794.62 174.91 791.12 180.40Q787.63 185.88 782.93 191.02Q778.24 196.15 773.11 201.46L773.11 201.46L744.26 230.93Q748.42 229.69 752.53 229.03Q756.65 228.36 760.37 228.36L760.37 228.36Z" fill="#8C7B26"/></svg>