<?xml version="1.0" encoding="UTF-8"?><svg id="Camada_1" xmlns="http://www.w3.org/2000/svg" viewBox="0 0 41.07 48"><defs><style>.cls-1{fill:#e4c1be;}</style></defs><g id="UI"><g id="D_Chambres_OPTION-2" transform="translate(-1080.000000, -2183.000000)"><g id="CLASSIC" transform="translate(0.000000, 1755.000000)"><g id="Group-5" transform="translate(837.000000, 40.000000)"><g id="PICTO_TWIN" transform="translate(243.733333, 388.000000)"><path id="Path" class="cls-1" d="M8.14,12.8c-.39,0-.71,.31-.71,.7v.89c0,.39,.32,.7,.71,.7s.71-.31,.71-.7v-.89c0-.39-.32-.7-.71-.7Z"/><path id="Path-2" class="cls-1" d="M11.94,12.8c-.39,0-.71,.31-.71,.7v.89c0,.39,.32,.7,.71,.7s.71-.31,.71-.7v-.89c0-.39-.32-.7-.71-.7Z"/><path id="Path-3" class="cls-1" d="M15.74,12.8c-.39,0-.71,.31-.71,.7v.89c0,.39,.32,.7,.71,.7s.71-.31,.71-.7v-.89c0-.39-.32-.7-.71-.7Z"/><path id="Path-4" class="cls-1" d="M19.54,12.8c-.39,0-.71,.31-.71,.7v.89c0,.39,.32,.7,.71,.7s.71-.31,.71-.7v-.89c0-.39-.32-.7-.71-.7Z"/><path id="Path-5" class="cls-1" d="M23.35,12.8c-.39,0-.71,.31-.71,.7v.89c0,.39,.32,.7,.71,.7s.71-.31,.71-.7v-.89c0-.39-.32-.7-.71-.7Z"/><path id="Path-6" class="cls-1" d="M10.04,16.74c-.39,0-.71,.31-.71,.7v.89c0,.39,.32,.7,.71,.7s.71-.31,.71-.7v-.89c0-.39-.32-.7-.71-.7Z"/><path id="Path-7" class="cls-1" d="M13.84,16.74c-.39,0-.71,.31-.71,.7v.89c0,.39,.32,.7,.71,.7s.71-.31,.71-.7v-.89c0-.39-.32-.7-.71-.7Z"/><path id="Path-8" class="cls-1" d="M17.64,16.74c-.39,0-.71,.31-.71,.7v.89c0,.39,.32,.7,.71,.7s.71-.31,.71-.7v-.89c0-.39-.32-.7-.71-.7Z"/><path id="Path-9" class="cls-1" d="M21.45,16.74c-.39,0-.71,.31-.71,.7v.89c0,.39,.32,.7,.71,.7s.71-.31,.71-.7v-.89c0-.39-.32-.7-.71-.7Z"/><path id="Path-10" class="cls-1" d="M8.14,20.19c-.39,0-.71,.31-.71,.7v.89c0,.39,.32,.7,.71,.7s.71-.31,.71-.7v-.89c0-.39-.32-.7-.71-.7Z"/><path id="Path-11" class="cls-1" d="M11.94,20.19c-.39,0-.71,.31-.71,.7v.89c0,.39,.32,.7,.71,.7s.71-.31,.71-.7v-.89c0-.39-.32-.7-.71-.7Z"/><path id="Path-12" class="cls-1" d="M15.74,20.19c-.39,0-.71,.31-.71,.7v.89c0,.39,.32,.7,.71,.7s.71-.31,.71-.7v-.89c0-.39-.32-.7-.71-.7Z"/><path id="Path-13" class="cls-1" d="M19.54,20.19c-.39,0-.71,.31-.71,.7v.89c0,.39,.32,.7,.71,.7s.71-.31,.71-.7v-.89c0-.39-.32-.7-.71-.7Z"/><path id="Path-14" class="cls-1" d="M23.35,20.19c-.39,0-.71,.31-.71,.7v.89c0,.39,.32,.7,.71,.7s.71-.31,.71-.7v-.89c0-.39-.32-.7-.71-.7Z"/><path id="Path-15" class="cls-1" d="M10.04,24.14c-.39,0-.71,.31-.71,.7v.89c0,.39,.32,.7,.71,.7s.71-.31,.71-.7v-.89c0-.39-.32-.7-.71-.7Z"/><path id="Path-16" class="cls-1" d="M13.84,24.14c-.39,0-.71,.31-.71,.7v.89c0,.39,.32,.7,.71,.7s.71-.31,.71-.7v-.89c0-.39-.32-.7-.71-.7Z"/><path id="Path-17" class="cls-1" d="M17.64,24.14c-.39,0-.71,.31-.71,.7v.89c0,.39,.32,.7,.71,.7s.71-.31,.71-.7v-.89c0-.39-.32-.7-.71-.7Z"/><path id="Path-18" class="cls-1" d="M21.45,24.14c-.39,0-.71,.31-.71,.7v.89c0,.39,.32,.7,.71,.7s.71-.31,.71-.7v-.89c0-.39-.32-.7-.71-.7Z"/><path id="Path-19" class="cls-1" d="M8.14,27.59c-.39,0-.71,.31-.71,.7v.89c0,.39,.32,.7,.71,.7s.71-.31,.71-.7v-.89c0-.39-.32-.7-.71-.7Z"/><path id="Path-20" class="cls-1" d="M11.94,27.59c-.39,0-.71,.31-.71,.7v.89c0,.39,.32,.7,.71,.7s.71-.31,.71-.7v-.89c0-.39-.32-.7-.71-.7Z"/><path id="Path-21" class="cls-1" d="M15.74,27.59c-.39,0-.71,.31-.71,.7v.89c0,.39,.32,.7,.71,.7s.71-.31,.71-.7v-.89c0-.39-.32-.7-.71-.7Z"/><path id="Path-22" class="cls-1" d="M19.54,27.59c-.39,0-.71,.31-.71,.7v.89c0,.39,.32,.7,.71,.7s.71-.31,.71-.7v-.89c0-.39-.32-.7-.71-.7Z"/><path id="Path-23" class="cls-1" d="M23.35,27.59c-.39,0-.71,.31-.71,.7v.89c0,.39,.32,.7,.71,.7s.71-.31,.71-.7v-.89c0-.39-.32-.7-.71-.7Z"/><path id="Path-24" class="cls-1" d="M11.94,35.64c-.39,0-.71,.31-.71,.7v.89c0,.39,.32,.7,.71,.7s.71-.31,.71-.7v-.89c0-.39-.32-.7-.71-.7Z"/><path id="Path-25" class="cls-1" d="M15.74,35.64c-.39,0-.71,.31-.71,.7v.89c0,.39,.32,.7,.71,.7s.71-.31,.71-.7v-.89c0-.39-.32-.7-.71-.7Z"/><path id="Path-26" class="cls-1" d="M19.54,35.64c-.39,0-.71,.31-.71,.7v.89c0,.39,.32,.7,.71,.7s.71-.31,.71-.7v-.89c0-.39-.32-.7-.71-.7Z"/><path id="Path-27" class="cls-1" d="M10.04,31.63c-.39,0-.71,.31-.71,.7v.89c0,.39,.32,.7,.71,.7s.71-.31,.71-.7v-.89c0-.39-.32-.7-.71-.7Z"/><path id="Path-28" class="cls-1" d="M13.84,31.63c-.39,0-.71,.31-.71,.7v.89c0,.39,.32,.7,.71,.7s.71-.31,.71-.7v-.89c0-.39-.32-.7-.71-.7Z"/><path id="Path-29" class="cls-1" d="M17.64,31.63c-.39,0-.71,.31-.71,.7v.89c0,.39,.32,.7,.71,.7s.71-.31,.71-.7v-.89c0-.39-.32-.7-.71-.7Z"/><path id="Path-30" class="cls-1" d="M21.45,31.63c-.39,0-.71,.31-.71,.7v.89c0,.39,.32,.7,.71,.7s.71-.31,.71-.7v-.89c0-.39-.32-.7-.71-.7Z"/><path id="Shape" class="cls-1" d="M39.89,42.13h-2.86v-4.16c0-.39-.32-.7-.71-.7s-.71,.31-.71,.7v4.16h-2.22V1.41h2.22V34.55c0,.39,.32,.7,.71,.7s.71-.31,.71-.7V1.17c0-.65-.53-1.17-1.18-1.17H16.21c-.65,0-1.18,.53-1.18,1.17v1.64c-2.28,.33-4.05,2.2-4.2,4.52h-.43c-.65,0-1.18,.53-1.18,1.17v1.73c0,.65,.53,1.17,1.18,1.17h10.68c.65,0,1.18-.53,1.18-1.17v-1.73c0-.65-.53-1.17-1.18-1.17h-.43c-.15-2.31-1.93-4.19-4.2-4.52V1.41h15.55V21.78h-1.01c-.65,0-1.18,.53-1.18,1.17v7.22c0,.65,.53,1.17,1.18,1.17h1.01v10.79H11.41c-.39,0-.71,.31-.71,.7s.32,.7,.71,.7h28.24v3.06H1.41v-3.06h6.76c.39,0,.71-.31,.71-.7s-.32-.7-.71-.7H1.18c-.65,0-1.18,.53-1.18,1.17v3.53c0,.65,.53,1.17,1.18,1.17H39.89c.65,0,1.18-.53,1.18-1.17v-3.53c0-.65-.53-1.17-1.18-1.17h0ZM19.23,7.33h-.58c-.39,0-.71,.31-.71,.7s.32,.7,.71,.7h2.19v1.26H10.64v-1.26h4.63c.39,0,.71-.31,.71-.7s-.32-.7-.71-.7h-3.02c.16-1.77,1.67-3.16,3.49-3.16s3.33,1.39,3.49,3.16Zm12.76,22.6h-.77v-6.75h.77v6.75Z"/></g></g></g></g></g></svg>