<?xml version="1.0" encoding="UTF-8"?>
<svg width="48px" height="42px" viewBox="0 0 48 42" version="1.1" xmlns="http://www.w3.org/2000/svg" xmlns:xlink="http://www.w3.org/1999/xlink">
    <title>FA37F78F-3BF0-4C7D-A312-7878072ACEA0</title>
    <g id="UI" stroke="none" stroke-width="1" fill="none" fill-rule="evenodd">
        <g id="D_Chambres_OPTION-2" transform="translate(-1077.000000, -2259.000000)" fill="#E4C1BE" fill-rule="nonzero">
            <g id="CLASSIC" transform="translate(0.000000, 1755.000000)">
                <g id="Group-5" transform="translate(837.000000, 40.000000)">
                    <g id="ELEMENT/CHAMBRE-Copy-3" transform="translate(240.000000, 462.000000)">
                        <g id="np_twin-bed_3357749_000000" transform="translate(0.000000, 2.333893)">
                            <g id="amenities-(1)" transform="translate(0.000000, -0.000000)">
                                <path d="M28.0393515,32.5598739 L8.20310898,32.5598739 C7.81479724,32.5598739 7.49998535,32.8746858 7.49998535,33.2629975 C7.49998535,33.6513093 7.81479724,33.9661212 8.20310898,33.9661212 L28.0393515,33.9661212 C28.6746002,33.9661212 29.2112242,34.6315574 29.2112242,35.4192433 C29.2112242,35.8338988 29.1009744,36.3098666 28.2411011,36.3098666 L22.9625177,36.3098666 C22.5742059,36.3098666 22.259394,36.6246785 22.259394,37.0129902 C22.259394,37.401302 22.5742059,37.7161138 22.9625177,37.7161138 L28.2411011,37.7161138 C29.6846608,37.7161138 30.6174715,36.8145218 30.6174715,35.4192433 C30.6174715,33.8425589 29.46088,32.5598739 28.0393515,32.5598739 Z" id="Path"></path>
                                <path d="M45.5787235,10.4506671 C45.2490991,10.0811991 44.9187248,9.77023092 44.6115066,9.51241892 C44.6790065,9.40451288 44.7186627,9.27729438 44.7186627,9.14060715 L44.7186627,2.10937088 C44.7186627,0.946216902 43.7724458,0 42.6092918,0 L36.9843028,0 C35.8211488,0 34.8749319,0.946216902 34.8749319,2.10937088 L34.8749319,9.14060715 C34.8749319,9.27729438 34.9145881,9.40441913 34.9820879,9.51241892 C34.6748698,9.77023092 34.3444954,10.0811991 34.0148711,10.4506671 C33.6019031,10.9135099 33.1593102,11.5053525 32.7669673,12.2353824 C32.1010623,10.997416 31.2631264,10.1094178 30.5498778,9.51120017 C30.616909,9.40348163 30.6562839,9.27682563 30.6562839,9.1407009 L30.6562839,2.10946463 C30.6562839,0.946310652 29.710067,0 28.546913,0 L22.921924,0 C21.75877,0 20.8125531,0.946310652 20.8125531,2.10946463 L20.8125531,9.1407009 C20.8125531,9.27579438 20.8513655,9.40151289 20.9173654,9.50866893 C19.6451804,10.5729168 17.9754024,12.5535692 17.6048094,15.7948754 C17.560747,16.1806559 17.8376839,16.5292177 18.2235582,16.5733739 C18.2507456,16.5764676 18.2776518,16.5779676 18.3042767,16.5779676 C18.6568698,16.5779676 18.9609942,16.3133119 19.0019629,15.9547188 C19.4629307,11.9229142 22.2450503,10.1932301 22.889299,9.84391827 L28.5782254,9.84391827 C29.0960057,10.128074 31.0859393,11.3655716 32.0282187,14.0306913 C31.7621567,14.9223459 31.593782,15.9454376 31.593782,17.1095291 L31.593782,19.1079002 C31.593782,19.4962119 31.9085939,19.8110238 32.2969057,19.8110238 C32.6852174,19.8110238 33.0000293,19.4962119 33.0000293,19.1079002 L33.0000293,17.1095291 C33.0000293,12.2486948 36.245648,10.2261363 36.9515841,9.84391827 L42.6404167,9.84391827 C43.3257279,10.2212613 46.5937527,12.2756948 46.5937527,17.1095291 L46.5937527,28.4791319 C46.5937527,28.8674436 46.9085646,29.1822555 47.2968764,29.1822555 C47.6851881,29.1822555 48,28.8674436 48,28.4791319 L48,17.1093416 C48,13.8486292 46.6832838,11.6885397 45.5787235,10.4506671 L45.5787235,10.4506671 Z M22.2187066,8.43748352 L22.2187066,4.49567872 C22.4745499,4.54714737 22.7691118,4.58324105 23.0983611,4.58324105 C23.6324538,4.58324105 24.2546714,4.48958498 24.936045,4.21874176 L29.2499429,4.21874176 L29.2499429,8.43748352 L22.2187066,8.43748352 Z M22.9218302,1.40624725 L28.5468192,1.40624725 C28.9345685,1.40624725 29.2499429,1.72162164 29.2499429,2.10937088 L29.2499429,2.81249451 L24.7968266,2.81249451 C24.7016705,2.81249451 24.6075457,2.83180697 24.5201709,2.86921315 C23.4781416,3.31508728 22.6541745,3.18740002 22.2187066,3.05183779 L22.2187066,2.10937088 C22.2187066,1.72162164 22.534081,1.40624725 22.9218302,1.40624725 Z M36.2811791,8.43748352 L36.2811791,4.49567872 C36.5370224,4.54714737 36.8315843,4.58324105 37.1608337,4.58324105 C37.6949264,4.58324105 38.3171439,4.48958498 38.9985176,4.21874176 L43.3124154,4.21874176 L43.3124154,8.43748352 L36.2811791,8.43748352 Z M36.9843028,1.40624725 L42.6092918,1.40624725 C42.997041,1.40624725 43.3124154,1.72162164 43.3124154,2.10937088 L43.3124154,2.81249451 L38.8592991,2.81249451 C38.764143,2.81249451 38.6700182,2.83180697 38.5826434,2.86921315 C37.5407079,3.31508728 36.716647,3.18740002 36.2811791,3.05183779 L36.2811791,2.10937088 C36.2811791,1.72162164 36.5965535,1.40624725 36.9843028,1.40624725 Z" id="Shape"></path>
                                <path d="M47.2967826,30.588409 C46.9084709,30.588409 46.593659,30.9032209 46.593659,31.2915326 L46.593659,36.5442411 C46.593659,36.9319904 46.2782846,37.2473648 45.8905354,37.2473648 L34.2135269,37.2473648 C34.3148705,36.7893969 34.3674641,36.3040541 34.3674641,35.7942426 C34.3674641,34.3069017 33.8747151,32.8035297 32.9999355,31.5735321 L32.9999355,21.9202072 C32.9999355,21.5318954 32.6851237,21.2170836 32.2968119,21.2170836 C31.9085002,21.2170836 31.5936883,21.5318954 31.5936883,21.9202072 L31.5936883,30.1028787 C31.0192832,29.6592546 30.3866594,29.3249427 29.7157857,29.1071619 C29.934129,28.7032877 30.0549725,28.2050074 30.0549725,27.6380085 C30.0549725,26.1681989 29.0149121,25.0598886 27.6357585,25.0598886 L27.118447,25.0598886 C27.2988217,24.7080455 27.401384,24.30989 27.401384,23.8880158 L27.401384,22.3321439 C27.401384,20.6689284 26.2676674,19.2572436 24.6442956,18.8992131 C22.8436429,18.5019951 20.1598669,18.0285585 17.5994656,18.0285585 C15.0391581,18.0285585 12.3552884,18.5019951 10.5547294,18.8991193 C8.93135756,19.2571499 7.79754727,20.6688346 7.79754727,22.3320501 L7.79754727,23.8879221 C7.79754727,24.3457962 7.91810953,24.7758266 8.12829662,25.1489509 C6.0926131,25.4263566 4.21086678,26.348386 2.73027592,27.8148207 C0.995248056,29.5335361 0,31.860969 0,34.2004957 C0,36.2318667 0.732936068,38.0912069 2.06371472,39.4358605 C3.35943094,40.7450767 5.10102129,41.4661065 6.96795514,41.4661065 L28.4429444,41.4661065 C30.1670036,41.4661065 31.6383132,40.94467 32.6977799,39.9581407 C33.1046541,39.5792977 33.4398097,39.1416736 33.7005279,38.653612 L45.8905354,38.653612 C47.0536893,38.653612 47.9999063,37.7073951 47.9999063,36.5442411 L47.9999063,31.2915326 C47.9999063,30.9031271 47.6850944,30.588409 47.2967826,30.588409 Z M28.4429444,40.0598593 L6.96786139,40.0598593 C3.79724258,40.0598593 1.40624725,37.5408954 1.40624725,34.2004957 C1.40624725,32.2337183 2.24962061,30.2704096 3.71999273,28.8141 C5.248771,27.3000404 7.27948578,26.4661358 9.43835657,26.4661358 L12.5061318,26.4661358 C12.8944436,26.4661358 13.2092555,26.1513239 13.2092555,25.7630122 C13.2092555,25.3747004 12.8944436,25.0598886 12.5061318,25.0598886 L10.3758547,25.0598886 C9.72963725,25.0598886 9.20398202,24.5342333 9.20398202,23.8880158 L9.20398202,22.3321439 C9.20398202,21.3341771 9.8840432,20.4872412 10.8578225,20.2724604 C12.5901317,19.8903362 15.1660016,19.4348995 17.5996531,19.4348995 C20.0333046,19.4348995 22.6091746,19.8903362 24.3415775,20.2725542 C25.3152631,20.487335 25.9953242,21.3342708 25.9953242,22.3322376 L25.9953242,23.8881096 C25.9953242,24.5343271 25.469669,25.0599823 24.8234515,25.0599823 L15.3186263,25.0599823 C14.9303146,25.0599823 14.6155027,25.3747942 14.6155027,25.7631059 C14.6155027,26.1514177 14.9303146,26.4662296 15.3186263,26.4662296 L27.6357585,26.4662296 C28.3316634,26.4662296 28.6487253,27.0736346 28.6487253,27.6381023 C28.6487253,28.1727575 28.5080068,28.809975 27.8376019,28.809975 L8.82073277,28.809975 C7.61014139,28.809975 6.35980008,29.309474 5.39042697,30.1804098 C4.33255404,31.1305642 3.74999268,32.3918742 3.74999268,33.7317466 C3.74999268,35.6163054 5.3251771,37.7161138 7.58548518,37.7161138 L20.1500231,37.7161138 C20.5383349,37.7161138 20.8531468,37.401302 20.8531468,37.0129902 C20.8531468,36.6246785 20.5383349,36.3098666 20.1500231,36.3098666 L7.58548518,36.3098666 C6.19508165,36.3098666 5.15623993,34.948713 5.15623993,33.7317466 C5.15623993,31.7195943 7.0909549,30.2161285 8.82073277,30.2161285 L27.8376019,30.2161285 C30.9024709,30.2161285 32.9612169,33.1004354 32.9612169,35.7942426 C32.9612169,38.4253312 31.229939,40.0598593 28.4429444,40.0598593 L28.4429444,40.0598593 Z" id="Shape"></path>
                            </g>
                        </g>
                    </g>
                </g>
            </g>
        </g>
    </g>
</svg>